<mxfile host="app.diagrams.net" agent="Mozilla/5.0 (Windows NT 10.0; Win64; x64) AppleWebKit/537.36 (KHTML, like Gecko) Chrome/135.0.0.0 Safari/537.36" version="26.2.14">
  <diagram id="vkK8o-hsKimOO6CbCIKc" name="第1頁">
    <mxGraphModel dx="1340" dy="734" grid="1" gridSize="10" guides="1" tooltips="1" connect="1" arrows="1" fold="1" page="1" pageScale="1" pageWidth="1169" pageHeight="827" math="0" shadow="0">
      <root>
        <mxCell id="0" />
        <mxCell id="1" parent="0" />
        <mxCell id="iIE0ldJsGx-aEYX-XOFw-3" value="" style="rounded=1;whiteSpace=wrap;html=1;movable=1;resizable=1;rotatable=1;deletable=1;editable=1;locked=0;connectable=1;strokeWidth=1;fontFamily=標楷體;fontSize=18;fontStyle=0;dashed=1;dashPattern=8 8;" parent="1" vertex="1">
          <mxGeometry x="240" y="180" width="910" height="320" as="geometry" />
        </mxCell>
        <mxCell id="iIE0ldJsGx-aEYX-XOFw-24" value="&lt;font style=&quot;font-size: 20px;&quot; face=&quot;標楷體&quot;&gt;&lt;b style=&quot;&quot;&gt;驅&lt;/b&gt;&lt;/font&gt;&lt;b style=&quot;font-size: 20px; font-family: 標楷體; background-color: transparent; color: light-dark(rgb(0, 0, 0), rgb(255, 255, 255));&quot;&gt;動&lt;/b&gt;" style="text;html=1;align=center;verticalAlign=middle;whiteSpace=wrap;rounded=0;fontFamily=Helvetica;fontSize=12;fontColor=default;" parent="1" vertex="1">
          <mxGeometry x="557.0025" y="300.535" width="54.375" height="30" as="geometry" />
        </mxCell>
        <mxCell id="iIE0ldJsGx-aEYX-XOFw-93" value="&lt;font style=&quot;font-size: 20px;&quot; color=&quot;#333333&quot;&gt;&lt;b&gt;科技可供性制定&lt;/b&gt;&lt;/font&gt;" style="rounded=0;whiteSpace=wrap;html=1;strokeColor=#36393d;fillColor=#cce5ff;fontFamily=標楷體;fontSize=18;fontStyle=0;align=center;verticalAlign=middle;fontColor=default;resizable=1;" parent="1" vertex="1">
          <mxGeometry x="500" y="135.81" width="290" height="60" as="geometry" />
        </mxCell>
        <mxCell id="jCKPyfohm9eTSwGeLUaR-52" value="&lt;font face=&quot;標楷體&quot;&gt;&lt;span style=&quot;font-size: 20px;&quot;&gt;&lt;b&gt;產生&lt;/b&gt;&lt;/span&gt;&lt;/font&gt;" style="text;html=1;align=center;verticalAlign=middle;whiteSpace=wrap;rounded=0;fontFamily=Helvetica;fontSize=12;fontColor=default;" parent="1" vertex="1">
          <mxGeometry x="930.0025" y="300.535" width="54.375" height="30" as="geometry" />
        </mxCell>
        <mxCell id="jCKPyfohm9eTSwGeLUaR-63" style="edgeStyle=orthogonalEdgeStyle;rounded=0;orthogonalLoop=1;jettySize=auto;html=1;exitX=1;exitY=0.5;exitDx=0;exitDy=0;entryX=0;entryY=0.5;entryDx=0;entryDy=0;strokeWidth=2;strokeColor=#808080;" parent="1" edge="1">
          <mxGeometry relative="1" as="geometry">
            <mxPoint x="545" y="333.515" as="sourcePoint" />
            <mxPoint x="625" y="332.01000000000005" as="targetPoint" />
            <Array as="points">
              <mxPoint x="545" y="331.48" />
              <mxPoint x="625" y="331.48" />
            </Array>
          </mxGeometry>
        </mxCell>
        <mxCell id="jCKPyfohm9eTSwGeLUaR-65" value="&lt;font face=&quot;標楷體&quot;&gt;&lt;span style=&quot;font-size: 20px;&quot;&gt;&lt;b&gt;修正&lt;/b&gt;&lt;/span&gt;&lt;/font&gt;" style="text;html=1;align=center;verticalAlign=middle;whiteSpace=wrap;rounded=0;fontFamily=Helvetica;fontSize=12;fontColor=default;" parent="1" vertex="1">
          <mxGeometry x="930" y="435.27" width="54.375" height="30" as="geometry" />
        </mxCell>
        <mxCell id="iIE0ldJsGx-aEYX-XOFw-49" value="&lt;font face=&quot;標楷體&quot;&gt;&lt;span style=&quot;font-size: 20px;&quot;&gt;&lt;b&gt;實踐&lt;/b&gt;&lt;/span&gt;&lt;/font&gt;" style="text;html=1;align=center;verticalAlign=middle;whiteSpace=wrap;rounded=0;" parent="1" vertex="1">
          <mxGeometry x="1150.0025" y="490.005" width="54.375" height="30" as="geometry" />
        </mxCell>
        <mxCell id="jCKPyfohm9eTSwGeLUaR-89" style="edgeStyle=orthogonalEdgeStyle;rounded=0;orthogonalLoop=1;jettySize=auto;html=1;entryX=-0.002;entryY=0.567;entryDx=0;entryDy=0;entryPerimeter=0;strokeColor=#808080;strokeWidth=2;align=center;verticalAlign=middle;fontFamily=Helvetica;fontSize=11;fontColor=default;labelBackgroundColor=default;endArrow=classic;exitX=1.002;exitY=0.477;exitDx=0;exitDy=0;exitPerimeter=0;" parent="1" edge="1" target="jCKPyfohm9eTSwGeLUaR-77" source="iIE0ldJsGx-aEYX-XOFw-3">
          <mxGeometry relative="1" as="geometry">
            <mxPoint x="1170" y="350" as="sourcePoint" />
            <mxPoint x="1212.1100500000002" y="331.32302000000027" as="targetPoint" />
          </mxGeometry>
        </mxCell>
        <mxCell id="qAASfBlt8r1QQWv_uzUB-15" style="edgeStyle=orthogonalEdgeStyle;rounded=0;orthogonalLoop=1;jettySize=auto;html=1;exitX=0.5;exitY=1;exitDx=0;exitDy=0;strokeColor=#808080;strokeWidth=2;align=center;verticalAlign=middle;fontFamily=Helvetica;fontSize=11;fontColor=default;labelBackgroundColor=default;endArrow=classic;" parent="1" source="jCKPyfohm9eTSwGeLUaR-22" edge="1">
          <mxGeometry relative="1" as="geometry">
            <Array as="points">
              <mxPoint x="1075" y="470" />
              <mxPoint x="399" y="470" />
            </Array>
            <mxPoint x="399" y="420" as="targetPoint" />
          </mxGeometry>
        </mxCell>
        <mxCell id="jCKPyfohm9eTSwGeLUaR-22" value="&lt;font color=&quot;#333333&quot;&gt;&lt;b&gt;平台階段性&lt;/b&gt;&lt;/font&gt;&lt;div&gt;&lt;font color=&quot;#333333&quot;&gt;&lt;b&gt;應用成果&lt;/b&gt;&lt;/font&gt;&lt;/div&gt;" style="rounded=1;whiteSpace=wrap;html=1;strokeColor=#36393d;fillColor=#eeeeee;fontFamily=標楷體;fontSize=20;fontStyle=0" parent="1" vertex="1">
          <mxGeometry x="1000" y="282.5" width="150" height="100" as="geometry" />
        </mxCell>
        <mxCell id="qAASfBlt8r1QQWv_uzUB-31" value="" style="group" parent="1" vertex="1" connectable="0">
          <mxGeometry x="1210" y="250.26000000000002" width="180" height="130.55" as="geometry" />
        </mxCell>
        <mxCell id="jCKPyfohm9eTSwGeLUaR-77" value="" style="rounded=1;whiteSpace=wrap;html=1;movable=1;resizable=1;rotatable=1;deletable=1;editable=1;locked=0;connectable=1;strokeWidth=1;dashed=1;dashPattern=8 8;fontFamily=標楷體;fontSize=18;fontStyle=0;arcSize=19;" parent="qAASfBlt8r1QQWv_uzUB-31" vertex="1">
          <mxGeometry y="20.00999999999999" width="180" height="110.54" as="geometry" />
        </mxCell>
        <mxCell id="iIE0ldJsGx-aEYX-XOFw-96" value="&lt;font style=&quot;font-size: 20px;&quot;&gt;&lt;b&gt;數位紡織&lt;/b&gt;&lt;/font&gt;&lt;div&gt;&lt;font style=&quot;font-size: 20px;&quot;&gt;&lt;b&gt;產業生態系&lt;/b&gt;&lt;/font&gt;&lt;/div&gt;" style="rounded=1;whiteSpace=wrap;html=1;fontSize=18;fontFamily=標楷體;movable=1;resizable=1;rotatable=1;deletable=1;editable=1;locked=0;connectable=1;fontStyle=0;fillColor=#fff2cc;strokeColor=#000000;" parent="qAASfBlt8r1QQWv_uzUB-31" vertex="1">
          <mxGeometry x="18.61" y="50.55000000000001" width="142.78" height="69.45" as="geometry" />
        </mxCell>
        <mxCell id="jCKPyfohm9eTSwGeLUaR-29" value="&lt;font color=&quot;#333333&quot; style=&quot;font-size: 20px;&quot;&gt;&lt;span style=&quot;&quot;&gt;目的&lt;/span&gt;&lt;/font&gt;" style="rounded=1;whiteSpace=wrap;html=1;strokeColor=#36393d;fillColor=#eeeeee;fontFamily=標楷體;fontSize=18;fontStyle=1" parent="qAASfBlt8r1QQWv_uzUB-31" vertex="1">
          <mxGeometry x="55" width="70" height="40" as="geometry" />
        </mxCell>
        <mxCell id="rwjSZb17rn8btheEOx0Z-28" style="edgeStyle=orthogonalEdgeStyle;rounded=0;orthogonalLoop=1;jettySize=auto;html=1;strokeColor=#808080;strokeWidth=2;align=center;verticalAlign=middle;fontFamily=Helvetica;fontSize=11;fontColor=default;labelBackgroundColor=default;endArrow=classic;" parent="1" source="rwjSZb17rn8btheEOx0Z-1" edge="1">
          <mxGeometry relative="1" as="geometry">
            <Array as="points">
              <mxPoint x="220" y="332" />
              <mxPoint x="220" y="332" />
            </Array>
            <mxPoint x="270" y="332" as="targetPoint" />
          </mxGeometry>
        </mxCell>
        <mxCell id="IkVJuPzNlVAYnWsuaFp5-1" style="edgeStyle=orthogonalEdgeStyle;rounded=0;orthogonalLoop=1;jettySize=auto;html=1;exitX=0.5;exitY=1;exitDx=0;exitDy=0;entryX=0.5;entryY=1;entryDx=0;entryDy=0;strokeColor=#808080;strokeWidth=2;align=center;verticalAlign=middle;fontFamily=Helvetica;fontSize=11;fontColor=default;labelBackgroundColor=default;endArrow=classic;" parent="1" source="rwjSZb17rn8btheEOx0Z-1" target="jCKPyfohm9eTSwGeLUaR-77" edge="1">
          <mxGeometry relative="1" as="geometry">
            <mxPoint x="140" y="530" as="targetPoint" />
            <Array as="points">
              <mxPoint x="140" y="530" />
              <mxPoint x="1300" y="530" />
            </Array>
          </mxGeometry>
        </mxCell>
        <mxCell id="rwjSZb17rn8btheEOx0Z-1" value="" style="group;movable=1;resizable=1;rotatable=1;deletable=1;editable=1;locked=0;connectable=1;" parent="1" vertex="1" connectable="0">
          <mxGeometry x="79.99838386342918" y="280.97" width="120.00323227314163" height="110" as="geometry" />
        </mxCell>
        <mxCell id="rwjSZb17rn8btheEOx0Z-2" value="&lt;span style=&quot;background-color: transparent; color: light-dark(rgb(0, 0, 0), rgb(255, 255, 255));&quot;&gt;意圖&lt;/span&gt;" style="rounded=0;whiteSpace=wrap;html=1;movable=1;resizable=1;rotatable=1;deletable=1;editable=1;locked=0;connectable=1;fontFamily=標楷體;fontSize=18;fontStyle=0" parent="rwjSZb17rn8btheEOx0Z-1" vertex="1">
          <mxGeometry y="50" width="60" height="60" as="geometry" />
        </mxCell>
        <mxCell id="rwjSZb17rn8btheEOx0Z-3" value="問題" style="rounded=0;whiteSpace=wrap;html=1;movable=1;resizable=1;rotatable=1;deletable=1;editable=1;locked=0;connectable=1;fontFamily=標楷體;fontSize=18;fontStyle=0" parent="rwjSZb17rn8btheEOx0Z-1" vertex="1">
          <mxGeometry x="60" y="50" width="60" height="60" as="geometry" />
        </mxCell>
        <mxCell id="rwjSZb17rn8btheEOx0Z-4" value="能動性" style="rounded=0;whiteSpace=wrap;html=1;movable=1;resizable=1;rotatable=1;deletable=1;editable=1;locked=0;connectable=1;fontFamily=標楷體;fontSize=18;fontStyle=0;fillColor=#cce5ff;strokeColor=#36393d;align=center;verticalAlign=middle;fontColor=default;" parent="rwjSZb17rn8btheEOx0Z-1" vertex="1">
          <mxGeometry x="0.003232273141634323" width="120" height="50" as="geometry" />
        </mxCell>
        <mxCell id="qS_gVdD-P8Rx0EDrNvQV-2" value="" style="group" vertex="1" connectable="0" parent="1">
          <mxGeometry x="630" y="230" width="290.0000000000002" height="184.00000000000003" as="geometry" />
        </mxCell>
        <mxCell id="jCKPyfohm9eTSwGeLUaR-64" value="" style="edgeStyle=orthogonalEdgeStyle;rounded=0;orthogonalLoop=1;jettySize=auto;html=1;strokeColor=#808080;strokeWidth=2;align=center;verticalAlign=middle;fontFamily=Helvetica;fontSize=11;fontColor=default;labelBackgroundColor=default;endArrow=classic;" parent="qS_gVdD-P8Rx0EDrNvQV-2" target="jCKPyfohm9eTSwGeLUaR-22" edge="1">
          <mxGeometry relative="1" as="geometry">
            <mxPoint x="290.0000000000002" y="103.9999999999998" as="sourcePoint" />
            <mxPoint x="389.9999999999998" y="103.9999999999998" as="targetPoint" />
            <Array as="points">
              <mxPoint x="290" y="105.00000000000003" />
            </Array>
          </mxGeometry>
        </mxCell>
        <mxCell id="iIE0ldJsGx-aEYX-XOFw-15" value="" style="rounded=1;whiteSpace=wrap;html=1;movable=1;resizable=1;rotatable=1;deletable=1;editable=1;locked=0;connectable=1;strokeWidth=2;dashed=1;fontFamily=標楷體;fontSize=18;fontStyle=0;arcSize=19;strokeColor=#7EA6E0;" parent="qS_gVdD-P8Rx0EDrNvQV-2" vertex="1">
          <mxGeometry y="18.00000000000003" width="290" height="166" as="geometry" />
        </mxCell>
        <mxCell id="iIE0ldJsGx-aEYX-XOFw-16" value="&lt;span style=&quot;color: light-dark(rgb(51, 51, 51), rgb(193, 193, 193)); background-color: transparent;&quot;&gt;&lt;b&gt;&lt;font style=&quot;font-size: 20px;&quot;&gt;行動&lt;/font&gt;&lt;/b&gt;&lt;/span&gt;" style="rounded=1;whiteSpace=wrap;html=1;strokeColor=#36393d;fillColor=#eeeeee;fontFamily=標楷體;fontSize=18;fontStyle=0" parent="qS_gVdD-P8Rx0EDrNvQV-2" vertex="1">
          <mxGeometry x="110" width="70" height="40" as="geometry" />
        </mxCell>
        <mxCell id="1qFZ0b5etKVb5s6CTwOf-43" value="雙元性能力實現可供性" style="rounded=0;whiteSpace=wrap;html=1;fontSize=18;fontFamily=標楷體;movable=1;resizable=1;rotatable=1;deletable=1;editable=1;locked=0;connectable=1;fillColor=#cce5ff;strokeColor=#36393d;fontStyle=0;align=center;verticalAlign=middle;fontColor=default;" parent="qS_gVdD-P8Rx0EDrNvQV-2" vertex="1">
          <mxGeometry x="44.99996737418428" y="53.54000000000005" width="200" height="50" as="geometry" />
        </mxCell>
        <mxCell id="1qFZ0b5etKVb5s6CTwOf-48" value="創新探索" style="rounded=0;whiteSpace=wrap;html=1;movable=1;resizable=1;rotatable=1;deletable=1;editable=1;locked=0;connectable=1;fontFamily=標楷體;fontSize=18;fontStyle=0" parent="qS_gVdD-P8Rx0EDrNvQV-2" vertex="1">
          <mxGeometry x="44.99996737418428" y="103.54000000000005" width="100" height="50" as="geometry" />
        </mxCell>
        <mxCell id="1qFZ0b5etKVb5s6CTwOf-47" value="靈活運用" style="rounded=0;whiteSpace=wrap;html=1;movable=1;resizable=1;rotatable=1;deletable=1;editable=1;locked=0;connectable=1;fontFamily=標楷體;fontSize=18;fontStyle=0" parent="qS_gVdD-P8Rx0EDrNvQV-2" vertex="1">
          <mxGeometry x="145.0000326258156" y="103.54000000000005" width="100" height="50" as="geometry" />
        </mxCell>
        <mxCell id="qS_gVdD-P8Rx0EDrNvQV-29" value="" style="group" vertex="1" connectable="0" parent="1">
          <mxGeometry x="270" y="230" width="280" height="185.66262465547476" as="geometry" />
        </mxCell>
        <mxCell id="qS_gVdD-P8Rx0EDrNvQV-14" value="" style="rounded=1;whiteSpace=wrap;html=1;movable=1;resizable=1;rotatable=1;deletable=1;editable=1;locked=0;connectable=1;strokeWidth=2;dashed=1;fontFamily=標楷體;fontSize=18;fontStyle=0;strokeColor=#7EA6E0;align=center;verticalAlign=middle;arcSize=19;fontColor=default;fillColor=default;" vertex="1" parent="qS_gVdD-P8Rx0EDrNvQV-29">
          <mxGeometry y="18.9926246554748" width="280" height="166.67" as="geometry" />
        </mxCell>
        <mxCell id="qS_gVdD-P8Rx0EDrNvQV-15" value="&lt;font color=&quot;#333333&quot;&gt;&lt;span&gt;&lt;b&gt;認知&lt;/b&gt;&lt;/span&gt;&lt;/font&gt;" style="rounded=1;whiteSpace=wrap;html=1;strokeColor=#36393d;fillColor=#eeeeee;fontFamily=標楷體;fontSize=18;fontStyle=0" vertex="1" parent="qS_gVdD-P8Rx0EDrNvQV-29">
          <mxGeometry x="109.50166666666667" width="60.66666666666667" height="32.437985467301424" as="geometry" />
        </mxCell>
        <mxCell id="qS_gVdD-P8Rx0EDrNvQV-25" value="" style="group" vertex="1" connectable="0" parent="qS_gVdD-P8Rx0EDrNvQV-29">
          <mxGeometry x="150" y="44.1826246554748" width="100.00000000000006" height="130" as="geometry" />
        </mxCell>
        <mxCell id="qS_gVdD-P8Rx0EDrNvQV-17" value="機會" style="rounded=0;whiteSpace=wrap;html=1;movable=1;resizable=1;rotatable=1;deletable=1;editable=1;locked=0;connectable=1;fontFamily=標楷體;fontSize=18;fontStyle=0;align=center;verticalAlign=middle;" vertex="1" parent="qS_gVdD-P8Rx0EDrNvQV-25">
          <mxGeometry y="50" width="100" height="40" as="geometry" />
        </mxCell>
        <mxCell id="qS_gVdD-P8Rx0EDrNvQV-18" value="物質性" style="rounded=0;whiteSpace=wrap;html=1;movable=1;resizable=1;rotatable=1;deletable=1;editable=1;locked=0;connectable=1;fontFamily=標楷體;fontSize=18;fontStyle=0;align=center;verticalAlign=middle;" vertex="1" parent="qS_gVdD-P8Rx0EDrNvQV-25">
          <mxGeometry y="90" width="100" height="40" as="geometry" />
        </mxCell>
        <mxCell id="qS_gVdD-P8Rx0EDrNvQV-16" value="探索可供性" style="rounded=0;whiteSpace=wrap;html=1;movable=1;resizable=1;rotatable=1;deletable=1;editable=1;locked=0;connectable=1;fontFamily=標楷體;fontSize=18;fontStyle=0;strokeColor=#36393d;align=center;verticalAlign=middle;fontColor=default;fillColor=#cce5ff;" vertex="1" parent="qS_gVdD-P8Rx0EDrNvQV-25">
          <mxGeometry width="100" height="50" as="geometry" />
        </mxCell>
        <mxCell id="qS_gVdD-P8Rx0EDrNvQV-24" style="edgeStyle=orthogonalEdgeStyle;rounded=0;orthogonalLoop=1;jettySize=auto;html=1;exitX=0.5;exitY=1;exitDx=0;exitDy=0;" edge="1" parent="qS_gVdD-P8Rx0EDrNvQV-25" source="qS_gVdD-P8Rx0EDrNvQV-18" target="qS_gVdD-P8Rx0EDrNvQV-18">
          <mxGeometry relative="1" as="geometry" />
        </mxCell>
        <mxCell id="qS_gVdD-P8Rx0EDrNvQV-26" value="" style="group" vertex="1" connectable="0" parent="qS_gVdD-P8Rx0EDrNvQV-29">
          <mxGeometry x="22.99666666666667" y="52.81262465547479" width="86.66666666666669" height="99.02999999999997" as="geometry" />
        </mxCell>
        <mxCell id="qAASfBlt8r1QQWv_uzUB-20" value="產業需求" style="rounded=0;whiteSpace=wrap;html=1;movable=1;resizable=1;rotatable=1;deletable=1;editable=1;locked=0;connectable=1;fontFamily=標楷體;fontSize=18;fontStyle=0;strokeColor=default;align=center;verticalAlign=middle;fontColor=default;fillColor=default;" parent="qS_gVdD-P8Rx0EDrNvQV-26" vertex="1">
          <mxGeometry width="86.66666666666667" height="50" as="geometry" />
        </mxCell>
        <mxCell id="rwjSZb17rn8btheEOx0Z-7" value="企業能力" style="rounded=0;whiteSpace=wrap;html=1;movable=1;resizable=1;rotatable=1;deletable=1;editable=1;locked=0;connectable=1;fontFamily=標楷體;fontSize=18;fontStyle=0;fillColor=default;strokeColor=default;align=center;verticalAlign=middle;fontColor=default;" parent="qS_gVdD-P8Rx0EDrNvQV-26" vertex="1">
          <mxGeometry y="49.02999999999997" width="86.66666666666667" height="50" as="geometry" />
        </mxCell>
      </root>
    </mxGraphModel>
  </diagram>
</mxfile>
